<svg width="201" height="85" viewBox="0 0 201 85" fill="none" xmlns="http://www.w3.org/2000/svg">
<path d="M15.4692 26.4707V83.1665H0.51123V26.4707H15.4692ZM114.518 69.8877V83.7827H112.557C108.019 83.7827 104.209 83.3903 101.184 82.5503C98.2151 81.7103 95.7499 80.3654 93.9009 78.4604C92.0519 76.5554 90.7079 74.0346 89.9229 70.9536C89.1379 67.8166 88.7461 63.8946 88.7461 59.2446V4.39844H103.704V26.4707H114.517V39.3003H103.704V59.0767C103.704 61.3177 103.816 63.1654 104.04 64.5664C104.32 66.0794 104.824 67.2004 105.608 67.9844C106.393 68.7684 107.569 69.3287 109.138 69.5527C110.485 69.7767 112.333 69.8877 114.518 69.8877ZM200.12 0.0273438V83.2217H185.162V0.0273438H200.12ZM56.9819 25.3496C64.3769 25.3496 70.2031 27.5908 74.3491 32.0728C78.4951 36.5548 80.6229 42.9413 80.5669 51.0093V83.1665H65.4971V53.0254C65.4971 48.3764 64.376 44.7347 62.248 42.1567C60.063 39.5797 56.7568 38.2344 52.4438 38.2344C48.8018 38.2344 45.6091 39.5796 42.9761 42.2686C40.5111 44.7896 39.2232 48.7117 39.0552 54.0337V83.1655H24.209V26.4697H38.9429V34.6494L39.7271 33.5854C41.7441 31.0084 44.2092 28.9907 47.1782 27.5347C50.0912 26.0787 53.3959 25.3496 56.9819 25.3496ZM175.303 43.2764C176.704 46.8624 177.431 50.6727 177.431 54.7617V60.0835H132.894L133.061 60.5874C134.014 63.8934 135.806 66.5823 138.439 68.4863C141.073 70.4473 144.545 71.4004 148.747 71.4004C155.47 71.4004 160.848 67.7583 163.089 65.0693L173.846 73.2485C169.139 78.6275 161.296 84.3965 148.636 84.3965C144.266 84.3965 140.177 83.6125 136.478 82.0435C132.781 80.5305 129.588 78.4026 127.011 75.7686C124.433 73.1356 122.361 69.9986 120.904 66.4136C119.447 62.8276 118.719 58.9616 118.719 54.8726C118.719 50.7826 119.448 46.9165 121.016 43.3315C122.529 39.7455 124.657 36.6086 127.291 33.9756C129.924 31.3426 133.061 29.2697 136.646 27.7017C140.232 26.1887 144.098 25.4053 148.187 25.4053C152.501 25.4053 156.479 26.1335 160.064 27.6465C163.648 29.1585 166.73 31.2304 169.308 33.9204C171.829 36.6114 173.847 39.7484 175.303 43.2764ZM148.02 38.1235C137.768 38.1795 133.005 45.4067 133.005 49.5527L163.089 49.4966C163.089 45.3506 158.271 38.1235 148.02 38.1235ZM0.119141 1.20459H15.8608V16.9463H0.119141V1.20459Z" fill="white"/>
</svg>
