<svg width="33" height="41" viewBox="0 0 33 41" fill="none" xmlns="http://www.w3.org/2000/svg">
<g clip-path="url(#clip0_2293_108)">
<path d="M32.5 27.5117C32.5 20.7523 28.3711 14.9609 22.5 12.5109V2.51172H24.375C24.7203 2.51172 25 2.23203 25 1.88672V0.636719C25 0.291406 24.7203 0.0117188 24.375 0.0117188H8.125C7.77969 0.0117188 7.5 0.291406 7.5 0.636719V1.88672C7.5 2.23203 7.77969 2.51172 8.125 2.51172H10V12.5109C4.12891 14.9609 0 20.7523 0 27.5117C0 31.7141 1.59609 35.5422 4.21406 38.4258C5.14766 39.4547 6.49609 40.0117 7.88594 40.0117H24.6078C26.0188 40.0117 27.3805 39.4305 28.325 38.3828C29.3344 37.2625 32.4844 33.5445 32.4766 27.5117H32.5ZM10.9625 14.8188L12.5 14.1773V2.51172H20V14.1773L21.5375 14.8188C26.2883 16.8008 29.4617 21.2117 29.9195 26.2617H25.9078C23.6687 26.2617 21.4227 25.6688 19.4164 24.5453C14.5875 21.8453 8.82109 21.8453 3.99141 24.5453L2.69453 25.2711C3.45469 20.6398 6.525 16.6695 10.9625 14.8188ZM26.468 36.7086C26.0078 37.2188 25.3305 37.5117 24.6078 37.5117H7.88594C7.17109 37.5117 6.50703 37.2328 6.06563 36.7461C3.925 34.3875 2.72656 31.3742 2.56484 28.2094L5.2125 26.7281C9.28203 24.4539 14.1359 24.4562 18.1961 26.7281C20.5766 28.0586 23.2422 28.7617 25.9078 28.7617H29.8914C29.6219 31.7031 28.4578 34.5008 26.468 36.7086Z" fill="#ff2e9f"/>
</g>
<defs>
<clipPath id="clip0_2293_108">
<rect width="32.5" height="40" fill="white" transform="translate(0 0.0117188)"/>
</clipPath>
</defs>
</svg>
